<?xml version="1.0" encoding="UTF-8" standalone="no"?>
<!-- Created with Inkscape (http://www.inkscape.org/) -->

<svg
   width="16"
   height="16"
   viewBox="0 0 16 16"
   version="1.1"
   id="svg848"
   inkscape:version="1.2.2 (732a01da63, 2022-12-09)"
   sodipodi:docname="PCRU_change_var_by_path.svg"
   xml:space="preserve"
   inkscape:export-filename="Projectile.png"
   inkscape:export-xdpi="96"
   inkscape:export-ydpi="96"
   xmlns:inkscape="http://www.inkscape.org/namespaces/inkscape"
   xmlns:sodipodi="http://sodipodi.sourceforge.net/DTD/sodipodi-0.dtd"
   xmlns="http://www.w3.org/2000/svg"
   xmlns:svg="http://www.w3.org/2000/svg"
   xmlns:rdf="http://www.w3.org/1999/02/22-rdf-syntax-ns#"
   xmlns:cc="http://creativecommons.org/ns#"><sodipodi:namedview
     id="namedview850"
     pagecolor="#ffffff"
     bordercolor="#000000"
     borderopacity="0.25"
     inkscape:showpageshadow="2"
     inkscape:pageopacity="0.0"
     inkscape:pagecheckerboard="0"
     inkscape:deskcolor="#d1d1d1"
     inkscape:document-units="mm"
     showgrid="false"
     inkscape:zoom="32.000001"
     inkscape:cx="3.5468748"
     inkscape:cy="6.6249997"
     inkscape:window-width="1920"
     inkscape:window-height="1009"
     inkscape:window-x="-8"
     inkscape:window-y="-8"
     inkscape:window-maximized="1"
     inkscape:current-layer="layer1" /><defs
     id="defs845" /><g
     inkscape:label="Слой 1"
     inkscape:groupmode="layer"
     id="layer1"><rect
       style="fill:#5bde4c;fill-opacity:1;stroke-width:1.2483;stroke-dashoffset:28.7769;paint-order:markers fill stroke"
       id="rect4770"
       width="16.000002"
       height="5.1888952"
       x="-9.1642141e-07"
       y="5.4055524" /><rect
       style="fill:#ffffff;fill-opacity:1;stroke-width:2.78002;stroke-dashoffset:28.7769;paint-order:markers fill stroke"
       id="rect7497-6"
       width="16"
       height="2.4045525"
       x="-2.0116568e-07"
       y="6.7977238" /><g
       aria-label="U"
       id="text346"
       style="font-size:6px;font-family:'Public Pixel';-inkscape-font-specification:'Public Pixel';text-align:center;text-anchor:middle;fill:#eb9e25;stroke-width:0;stroke-linecap:square;stroke-dashoffset:28.7769"><path
         d="M 0.75,4.5 H 0 V 0 H 1.5 V 4.5 H 3.75 V 0 h 1.5 V 4.5 H 4.5 V 5.25 H 0.75 Z"
         id="path952" /></g><g
       aria-label="var"
       id="text420"
       style="font-size:5.56522px;font-family:'Public Pixel';-inkscape-font-specification:'Public Pixel';text-align:center;text-anchor:middle;fill:#eb9e25;stroke-width:0.928992;stroke-linecap:square;stroke-dashoffset:28.7769"><path
         d="M 0.69564867,13.913043 H -3.8146973e-6 V 12.521738 H 1.3913012 v 1.391305 h 0.6956524 v 0.695652 h 0.6956525 v -0.695652 h 0.6956525 v -1.391305 h 1.391305 v 1.391305 H 4.1739111 v 0.695652 H 3.4782586 v 0.695653 H 2.7826061 V 16 H 2.0869536 V 15.304348 H 1.3913012 V 14.608695 H 0.69564867 Z"
         id="path1080" /><path
         d="M 6.2608685,15.304348 H 5.5652161 v -0.695653 h 0.6956524 v -0.695652 h 2.78261 V 13.21739 h -2.78261 V 12.521738 H 9.739131 v 0.695652 h 0.695652 V 16 H 6.2608685 Z m 0.6956525,0 H 9.0434785 V 14.608695 H 6.956521 Z"
         id="path1082" /><path
         d="m 11.130436,16 v -3.478262 h 1.391305 v 0.695652 h 0.695652 v 0.695653 H 12.521741 V 16 Z m 4.173915,-2.78261 h 0.695652 v 0.695653 H 14.608698 V 13.21739 h -1.391305 v -0.695652 h 2.086958 z"
         id="path1084" /></g><g
       aria-label="P"
       id="text731"
       style="font-size:6.17778px;font-family:'Public Pixel';-inkscape-font-specification:'Public Pixel';text-align:center;text-anchor:middle;fill:#2661f4;fill-opacity:1;stroke-width:0;stroke-linecap:square;stroke-dashoffset:28.7769"
       transform="matrix(0.97122362,0,0,0.97122362,0.46042217,-1.5093814e-7)"><path
         d="m 15.227778,0.77221727 h 0.772223 V 2.3166623 h -0.772223 v 0.7722225 h -3.08889 V 5.4055524 H 10.594443 V -5.2452087e-6 h 4.633335 z M 14.455556,2.3166623 V 0.77221727 H 12.138888 V 2.3166623 Z"
         id="path1337"
         style="fill:#2661f4;fill-opacity:1" /></g></g><metadata
     id="metadata5846"><rdf:RDF><cc:Work
         rdf:about="" /></rdf:RDF></metadata></svg>
