<?xml version="1.0" encoding="UTF-8" standalone="no"?>
<!-- Created with Inkscape (http://www.inkscape.org/) -->

<svg
   width="16"
   height="16"
   viewBox="0 0 16 16"
   version="1.1"
   id="svg848"
   inkscape:version="1.2.2 (732a01da63, 2022-12-09)"
   sodipodi:docname="PCRH_ID.svg"
   xml:space="preserve"
   inkscape:export-filename="Projectile.png"
   inkscape:export-xdpi="96"
   inkscape:export-ydpi="96"
   xmlns:inkscape="http://www.inkscape.org/namespaces/inkscape"
   xmlns:sodipodi="http://sodipodi.sourceforge.net/DTD/sodipodi-0.dtd"
   xmlns="http://www.w3.org/2000/svg"
   xmlns:svg="http://www.w3.org/2000/svg"
   xmlns:rdf="http://www.w3.org/1999/02/22-rdf-syntax-ns#"
   xmlns:cc="http://creativecommons.org/ns#"><sodipodi:namedview
     id="namedview850"
     pagecolor="#ffffff"
     bordercolor="#000000"
     borderopacity="0.25"
     inkscape:showpageshadow="2"
     inkscape:pageopacity="0.0"
     inkscape:pagecheckerboard="0"
     inkscape:deskcolor="#d1d1d1"
     inkscape:document-units="mm"
     showgrid="false"
     inkscape:zoom="32.000001"
     inkscape:cx="3.7343749"
     inkscape:cy="7.4374998"
     inkscape:window-width="1920"
     inkscape:window-height="1009"
     inkscape:window-x="-8"
     inkscape:window-y="-8"
     inkscape:window-maximized="1"
     inkscape:current-layer="layer1" /><defs
     id="defs845" /><g
     inkscape:label="Слой 1"
     inkscape:groupmode="layer"
     id="layer1"><rect
       style="fill:#ffffff;fill-opacity:1;stroke-width:2.78002;stroke-dashoffset:28.7769;paint-order:markers fill stroke"
       id="rect7497"
       width="16"
       height="2.4045525"
       x="2.6645353e-15"
       y="6.7977238" /><rect
       style="fill:#5bde4c;fill-opacity:1;stroke-width:1.2483;stroke-dashoffset:28.7769;paint-order:markers fill stroke"
       id="rect4770"
       width="16.000002"
       height="5.1888952"
       x="-9.1642141e-07"
       y="5.4055524" /><rect
       style="fill:#ffffff;fill-opacity:1;stroke-width:2.78002;stroke-dashoffset:28.7769;paint-order:markers fill stroke"
       id="rect7497-6"
       width="16"
       height="2.4045525"
       x="-2.0116568e-07"
       y="6.7977238" /><g
       aria-label="hit"
       id="text3380"
       style="font-size:5.56522px;font-family:'Public Pixel';-inkscape-font-specification:'Public Pixel';text-align:center;text-anchor:middle;fill:#eb4925;stroke-width:0.928992;stroke-linecap:square;stroke-dashoffset:28.7769"><path
         d="M -3.8146973e-6,16 V 11.130433 H 1.3913012 v 1.391305 H 4.1739111 V 13.21739 H 4.8695636 V 16 H 3.4782586 V 13.21739 H 1.3913012 V 16 Z"
         id="path5984" /><path
         d="M 5.5652161,16 V 15.304348 H 7.6521735 V 13.21739 h -1.391305 v -0.695652 h 2.78261 v 2.78261 H 10.434783 V 16 Z m 2.0869574,-4.173915 v -0.695652 h 1.391305 v 0.695652 z"
         id="path5986" /><path
         d="m 11.130436,13.21739 v -0.695652 h 1.391305 v -1.391305 h 1.391305 v 1.391305 h 2.086957 v 0.695652 h -2.086957 v 2.086958 h 2.086957 V 16 h -3.478262 v -2.78261 z"
         id="path5988" /></g><g
       aria-label="ID"
       id="text2367"
       style="font-size:6.17777px;font-family:'Public Pixel';-inkscape-font-specification:'Public Pixel, Normal';fill:#a2a2a2;stroke-width:1.46442;stroke-dashoffset:28.7769;paint-order:markers stroke fill"
       transform="translate(4.9546361e-7,-10.594448)"><path
         d="M 2.5944511,16 V 15.227779 H 4.1388937 V 11.366672 H 2.5944511 v -0.772221 h 4.6333276 v 0.772221 H 5.6833362 v 3.861107 H 7.2277787 V 16 Z"
         id="path2429" /><path
         d="m 11.088885,15.227779 v -0.772222 h 0.772221 V 12.138894 H 11.088885 V 11.366672 H 9.5444425 v 3.861107 z m 0.772221,0 V 16 H 8 v -5.405549 h 3.861106 v 0.772221 h 0.772222 v 0.772222 h 0.772221 v 2.316663 h -0.772221 v 0.772222 z"
         id="path2431" /></g></g><metadata
     id="metadata5846"><rdf:RDF><cc:Work
         rdf:about="" /></rdf:RDF></metadata></svg>
